name C:\Users\antoi\Documents\MyRepositories\upper-imu-dc\Results\main_tracking\Case_79\kinematics.mot
datacolumns 10
datarows 37
range 6.25000000 6.61000000
endheader 
time	clav_prot	clav_elev	scapula_abduction	scapula_elevation	scapula_upward_rot	scapula_winging	plane_elv	shoulder_elv	axial_rot	
          6.25000000	        -48.01051968	         -2.73682230	         -9.42138838	        -10.90842057	         74.77795253	        -10.10201474	         34.90154365	         83.45326003	          1.75477884	
          6.26000000	        -47.99451353	         -2.72505108	         -9.29546465	        -10.88980418	         74.91798985	        -10.08843116	         35.12004282	         83.52718305	          1.63126575	
          6.27000000	        -47.97761923	         -2.71359380	         -9.16791984	        -10.87122784	         75.05825162	        -10.07394273	         35.34002975	         83.59824788	          1.51051837	
          6.28000000	        -47.95995747	         -2.70236051	         -9.03890243	        -10.85262980	         75.19881363	        -10.05867592	         35.56157957	         83.66654371	          1.39286560	
          6.29000000	        -47.94166625	         -2.69126232	         -8.90859044	        -10.83395018	         75.33974897	        -10.04276723	         35.78470119	         83.73215934	          1.27858457	
          6.30000000	        -47.92289736	         -2.68021301	         -8.77718650	        -10.81513194	         75.48112688	        -10.02635992	         36.00933520	         83.79518687	          1.16789432	
          6.31000000	        -47.90381303	         -2.66912997	         -8.64491134	        -10.79612131	         75.62301443	        -10.00960126	         36.23535238	         83.85572313	          1.06094918	
          6.32000000	        -47.88458272	         -2.65793503	         -8.51199728	        -10.77686797	         75.76547820	         -9.99263980	         36.46255255	         83.91386990	          0.95783497	
          6.33000000	        -47.86537970	         -2.64655585	         -8.37868223	        -10.75732583	         75.90858495	         -9.97562227	         36.69066332	         83.96973417	          0.85857022	
          6.34000000	        -47.84637808	         -2.63492843	         -8.24520504	        -10.73745463	         76.05240089	         -9.95869029	         36.91933960	         84.02342838	          0.76311067	
          6.35000000	        -47.82774996	         -2.62300130	         -8.11180083	        -10.71722280	         76.19699082	         -9.94197603	         37.14816343	         84.07507043	          0.67135390	
          6.36000000	        -47.80966205	         -2.61074074	         -7.97869458	        -10.69661084	         76.34241836	         -9.92559699	         37.37664384	         84.12478266	          0.58314414	
          6.37000000	        -47.79227002	         -2.59813812	         -7.84609161	        -10.67561627	         76.48874465	         -9.90964809	         37.60421781	         84.17269421	          0.49826902	
          6.38000000	        -47.77571161	         -2.58522248	         -7.71416415	        -10.65426201	         76.63602853	         -9.89418976	         37.83025243	         84.21894386	          0.41644570	
          6.39000000	        -47.76010608	         -2.57205692	         -7.58304923	        -10.63259355	         76.78432900	         -9.87924976	         38.05405783	         84.26367452	          0.33731905	
          6.40000000	        -47.74556017	         -2.55872123	         -7.45287130	        -10.61066823	         76.93369162	         -9.86483894	         38.27492236	         84.30703592	          0.26046499	
          6.41000000	        -47.73216902	         -2.54531049	         -7.32375140	        -10.58855513	         77.08413818	         -9.85095378	         38.49214174	         84.34919250	          0.18540593	
          6.42000000	        -47.72003340	         -2.53191935	         -7.19583419	        -10.56632486	         77.23567117	         -9.83759665	         38.70506071	         84.39030716	          0.11161876	
          6.43000000	        -47.70928898	         -2.51861896	         -7.06933189	        -10.54403463	         77.38828303	         -9.82480749	         38.91312389	         84.43051171	          0.03857286	
          6.44000000	        -47.70005545	         -2.50545587	         -6.94449303	        -10.52172959	         77.54188915	         -9.81263875	         39.11587336	         84.46999795	         -0.03426800	
          6.45000000	        -47.69241707	         -2.49247589	         -6.82152078	        -10.49945358	         77.69639077	         -9.80112290	         39.31288783	         84.50897118	         -0.10735522	
          6.46000000	        -47.68640797	         -2.47980591	         -6.70032771	        -10.47728228	         77.85195601	         -9.79018679	         39.50357811	         84.54741462	         -0.18082940	
          6.47000000	        -47.68197929	         -2.46758791	         -6.58071102	        -10.45529813	         78.00872674	         -9.77969816	         39.68735393	         84.58535631	         -0.25474943	
          6.48000000	        -47.67902732	         -2.45589030	         -6.46259242	        -10.43355062	         78.16657449	         -9.76956087	         39.86382969	         84.62305078	         -0.32923670	
          6.49000000	        -47.67746935	         -2.44478207	         -6.34583747	        -10.41208095	         78.32549231	         -9.75968048	         40.03265047	         84.66059824	         -0.40420358	
          6.50000000	        -47.67728968	         -2.43423533	         -6.23052181	        -10.39087670	         78.48535683	         -9.75007520	         40.19372211	         84.69812517	         -0.47975919	
          6.51000000	        -47.67849555	         -2.42419735	         -6.11672218	        -10.36990513	         78.64609939	         -9.74078770	         40.34704497	         84.73566200	         -0.55598022	
          6.52000000	        -47.68104346	         -2.41462345	         -6.00441606	        -10.34913402	         78.80767413	         -9.73182165	         40.49265256	         84.77321086	         -0.63289221	
          6.53000000	        -47.68481381	         -2.40548137	         -5.89345149	        -10.32853429	         78.97004254	         -9.72312435	         40.63060076	         84.81077690	         -0.71053774	
          6.54000000	        -47.68963647	         -2.39674178	         -5.78357620	        -10.30807330	         79.13319159	         -9.71460672	         40.76098526	         84.84834116	         -0.78894229	
          6.55000000	        -47.69529686	         -2.38837362	         -5.67446158	        -10.28771361	         79.29711520	         -9.70615157	         40.88395381	         84.88587431	         -0.86810915	
          6.56000000	        -47.70156585	         -2.38033377	         -5.56575547	        -10.26740800	         79.46180979	         -9.69763911	         40.99973244	         84.92332508	         -0.94801857	
          6.57000000	        -47.70820812	         -2.37257218	         -5.45709278	        -10.24710339	         79.62727677	         -9.68894883	         41.10861969	         84.96061455	         -1.02868666	
          6.58000000	        -47.71497029	         -2.36504890	         -5.34807643	        -10.22675246	         79.79351815	         -9.67994211	         41.21095849	         84.99764481	         -1.11022013	
          6.59000000	        -47.72159242	         -2.35773828	         -5.23830273	        -10.20631832	         79.96052580	         -9.67046823	         41.30713493	         85.03429704	         -1.19278710	
          6.60000000	        -47.72781582	         -2.35063558	         -5.12737494	        -10.18578007	         80.12827817	         -9.66036579	         41.39756967	         85.07042459	         -1.27659447	
          6.61000000	        -47.73338376	         -2.34375570	         -5.01490790	        -10.16513240	         80.29673586	         -9.64946455	         41.48270665	         85.10585204	         -1.36188448	
